<svg width="60" height="60" viewBox="0 0 60 60" fill="none" xmlns="http://www.w3.org/2000/svg">
<path d="M45.8241 18.9903C45.6458 19.0679 45.4951 19.1977 45.3921 19.3626C45.2749 19.5974 45.1702 19.8382 45.0786 20.0841C44.9652 20.3899 44.8727 20.7029 44.8016 21.0211C43.6588 25.0213 42.5232 28.9973 41.3831 32.985H24.8161C23.6795 29.0125 22.5403 25.0245 21.3984 21.0211L20.8204 18.9992C20.5175 17.9304 20.2227 16.8892 19.9217 15.8462C19.7515 15.2556 19.4157 15.0009 18.8083 15C17.2413 15 15.6745 15 14.1081 15C13.4579 15 13.0063 15.4079 13 15.9887C12.9947 16.5837 13.4507 16.9978 14.1214 16.9987C15.3542 16.9987 16.5872 16.9987 17.8205 16.9987H18.1617C18.2026 17.1288 18.2329 17.2125 18.257 17.2971C19.7729 22.6081 21.2925 27.9178 22.8156 33.2264C22.9545 33.7082 22.9518 34.1001 22.69 34.5366C22.3123 35.1638 22.197 35.9146 22.3693 36.6262C22.5107 37.3013 22.8814 37.9066 23.4185 38.3393C23.9556 38.7721 24.626 39.0055 25.3157 38.9999C26.0532 39.0052 26.7898 38.9999 27.5273 38.9999C25.835 39.5343 24.874 40.8454 25.0851 42.3498C25.3015 43.888 26.5556 45.0014 28.0707 44.9996C29.5858 44.9979 30.8318 43.8854 31.0492 42.3427C31.2585 40.8392 30.2814 39.5156 28.5695 39.0186H37.6697C35.6443 39.5022 35.011 41.1278 35.1508 42.3204C35.2304 43.0457 35.5708 43.7173 36.1088 44.2102C36.6468 44.7031 37.3456 44.9837 38.075 44.9996C39.6017 45.0228 40.8469 43.9566 41.1034 42.405C41.3537 40.8908 40.4042 39.5744 38.5969 39.0008H39.0289C40.0621 39.0008 41.0954 39.007 42.1286 39.0008C42.3827 39.0027 42.6281 38.9076 42.8145 38.7348C43.0009 38.5619 43.1143 38.3245 43.1315 38.0709C43.1476 37.8302 43.0763 37.5918 42.9306 37.3995C42.785 37.2072 42.5748 37.074 42.3388 37.0243C42.1953 37.0019 42.05 36.9945 41.905 37.002H25.4404C24.5025 37.002 24.0741 36.2895 24.4535 35.4362C24.6085 35.087 24.8098 34.9908 25.1759 34.9908C30.7642 35.0033 36.3527 35.0063 41.9415 34.9998C42.6461 34.9998 42.948 34.7717 43.1413 34.0948C44.2297 30.288 45.3185 26.4817 46.4075 22.676C46.6391 21.8691 46.8902 21.0728 47.1325 20.2649C47.1925 20.087 47.2026 19.896 47.1616 19.7127C47.1206 19.5294 47.0301 19.3609 46.9 19.2255C46.7634 19.0853 46.5886 18.9883 46.3973 18.9465C46.2061 18.9047 46.0068 18.9199 45.8241 18.9903ZM39.1332 41.99C39.1317 42.2519 39.0288 42.503 38.8461 42.6907C38.6634 42.8783 38.4151 42.9879 38.1534 42.9964C38.0204 42.9973 37.8886 42.9719 37.7655 42.9217C37.6424 42.8716 37.5303 42.7977 37.4358 42.7042C37.3412 42.6107 37.266 42.4995 37.2145 42.377C37.1629 42.2544 37.136 42.1229 37.1353 41.99C37.1413 41.7275 37.2489 41.4777 37.4355 41.2931C37.6221 41.1085 37.8731 41.0036 38.1356 41.0004C38.3976 41.004 38.6481 41.1092 38.8341 41.2938C39.0202 41.4784 39.1274 41.7279 39.1332 41.99ZM29.0683 42.0087C29.062 42.2711 28.954 42.5209 28.767 42.7052C28.5801 42.8896 28.3288 42.994 28.0662 42.9964C27.8037 42.9919 27.5532 42.8856 27.3674 42.7C27.1817 42.5145 27.0752 42.2641 27.0704 42.0015C27.0726 41.7391 27.1767 41.4877 27.3606 41.3004C27.5446 41.1132 27.794 41.0046 28.0564 40.9977C28.1894 40.9978 28.321 41.0242 28.4437 41.0753C28.5664 41.1264 28.6779 41.2012 28.7716 41.2954C28.8654 41.3897 28.9396 41.5015 28.9901 41.6245C29.0405 41.7475 29.0662 41.8793 29.0656 42.0122L29.0683 42.0087Z" fill="#ABABAB"/>
</svg>
