<svg width="37" height="38" viewBox="0 0 37 38" fill="none" xmlns="http://www.w3.org/2000/svg">
<path d="M11.8673 0H25.1549C25.2482 0.0216416 25.343 0.0361118 25.4385 0.0432829C26.3281 0.0433373 27.2159 0.11955 28.0924 0.271085C30.3146 0.641263 32.3273 1.46135 33.939 3.08899C35.8537 5.02531 36.6362 7.44684 36.8776 10.0882C36.9334 10.6976 36.9596 11.3092 36.9995 11.9197V25.0582C36.9847 25.2131 36.9574 25.368 36.9562 25.5229C36.9517 26.642 36.8253 27.7572 36.5792 28.8488C35.6361 32.9493 33.1405 35.5177 29.0378 36.5144C27.3749 36.9187 25.68 36.9848 23.9874 36.9859C19.8722 36.9859 15.757 37.0748 11.6417 36.9369C10.4845 36.8982 9.33753 36.823 8.20763 36.5645C4.41587 35.7205 1.85195 33.5142 0.681053 29.7669C0.135468 28.0242 0.0318082 26.22 0.0158621 24.4135C-0.0183082 20.4543 -0.0183082 16.4948 0.0158621 12.5348C0.0272522 11.1794 0.0876197 9.81939 0.357565 8.48106C0.752801 6.53335 1.49659 4.75423 2.87593 3.2906C4.82249 1.22102 7.31805 0.378153 10.0688 0.116181C10.6713 0.0660648 11.2704 0.0398653 11.8673 0ZM3.44429 18.4759C3.44429 20.5454 3.4158 22.6162 3.45566 24.6857C3.47503 25.7519 3.51946 26.8237 3.7279 27.875C4.2826 30.6769 5.892 32.4754 8.69396 33.1668C9.91954 33.4686 11.1713 33.5233 12.4185 33.5415C16.4863 33.603 20.5541 33.603 24.6219 33.5415C25.7244 33.5256 26.8316 33.4812 27.925 33.2648C30.7782 32.6953 32.5642 31.0323 33.2271 28.1791C33.5039 26.9854 33.5529 25.7701 33.5688 24.5605C33.6303 20.5041 33.6303 16.4481 33.5688 12.3924C33.5529 11.2899 33.5084 10.1816 33.2943 9.0893C32.7248 6.22241 31.0653 4.41936 28.1915 3.76329C27.0332 3.4979 25.8531 3.4455 24.68 3.42727C20.5644 3.36197 16.4484 3.36197 12.332 3.42727C11.2533 3.44436 10.1679 3.48993 9.10288 3.70292C6.23485 4.27242 4.44548 5.95018 3.79055 8.82162C3.52972 9.9686 3.47844 11.1349 3.45566 12.2979C3.4158 14.3595 3.44657 16.4177 3.44657 18.4759H3.44429Z" fill="#ABABAB"/>
<path d="M18.5126 8.93555C23.842 8.9925 28.0632 13.1954 28.053 18.5032C28.0643 19.7647 27.8253 21.0159 27.3499 22.1844C26.8745 23.3529 26.1721 24.4155 25.2833 25.3107C24.3945 26.2059 23.3369 26.916 22.1719 27.3998C21.0068 27.8836 19.7574 28.1316 18.4959 28.1293C17.2344 28.127 15.9859 27.8746 14.8226 27.3866C13.6593 26.8986 12.6043 26.1848 11.7187 25.2864C10.8331 24.388 10.1345 23.3229 9.66324 22.1527C9.19201 20.9825 8.95755 19.7305 8.97341 18.4691C8.98252 13.1567 13.2196 8.99819 18.5126 8.93555ZM18.4955 24.6026C21.8704 24.6026 24.6245 21.869 24.6268 18.5158C24.6268 15.134 21.9046 12.3788 18.5502 12.3754C17.7407 12.3613 16.9366 12.5081 16.1843 12.8073C15.4321 13.1065 14.7467 13.5521 14.1681 14.1183C13.5894 14.6845 13.1289 15.3599 12.8134 16.1054C12.4978 16.851 12.3335 17.6517 12.3299 18.4613C12.3263 19.2709 12.4834 20.0731 12.7923 20.8214C13.1012 21.5697 13.5556 22.2493 14.1292 22.8206C14.7028 23.3919 15.3841 23.8436 16.1336 24.1495C16.8832 24.4554 17.686 24.6094 18.4955 24.6026Z" fill="#ABABAB"/>
<path d="M26.1406 8.60258C26.1397 8.00631 26.3748 7.43392 26.7946 7.01048C27.2145 6.58705 27.7848 6.34699 28.3811 6.34277C29.6112 6.34277 30.6762 7.41345 30.6591 8.63105C30.656 8.92946 30.5937 9.22429 30.4758 9.49845C30.358 9.77261 30.1868 10.0206 29.9724 10.2282C29.758 10.4357 29.5045 10.5987 29.2266 10.7075C28.9488 10.8164 28.6521 10.869 28.3537 10.8624C27.0906 10.8567 26.1372 9.88396 26.1406 8.60258Z" fill="#ABABAB"/>
</svg>
