<svg width="37" height="37" viewBox="0 0 37 37" fill="none" xmlns="http://www.w3.org/2000/svg">
<path d="M28.4114 36.6359C24.22 36.536 20.5173 34.9094 17.0621 32.7399C11.331 29.1414 6.66627 24.4332 3.28929 18.5544C1.25441 15.0146 -0.300535 11.2727 0.0447645 7.04445C0.294509 3.97585 1.74737 1.70209 4.57274 0.416444C6.37959 -0.404456 8.26462 -0.00486436 9.46774 1.55441C10.9271 3.43944 12.3127 5.39179 13.594 7.40278C14.8253 9.33993 14.2455 11.6028 12.3127 13.0492C10.7273 14.2393 10.723 14.2436 11.9283 15.779C14.682 19.2806 17.8613 22.4255 21.3925 25.1412C22.1743 25.7449 22.6173 25.8144 23.2536 24.8871C25.2082 22.0204 27.4494 21.699 30.2574 23.7209C31.5604 24.6504 32.8352 25.5929 34.1664 26.4442C37.5608 28.5985 37.1394 31.9255 34.6529 34.3991C32.9307 36.1126 30.7959 36.7119 28.4114 36.6359Z" fill="#ABABAB"/>
</svg>
