<svg width="53" height="37" viewBox="0 0 53 37" fill="none" xmlns="http://www.w3.org/2000/svg">
<path d="M26.2202 0.00172502C33.2414 0.00172502 40.2637 0.00172502 47.2871 0.00172502C47.968 -0.0151361 48.6462 0.0917273 49.2889 0.317112C49.6745 0.460913 49.7546 0.663543 49.4523 0.970756C49.3543 1.06553 49.2611 1.16521 49.1647 1.25999C42.7241 7.67659 36.2825 14.0916 29.8397 20.5049C28.021 22.3122 25.7921 22.6685 23.823 21.505C23.3371 21.2026 22.8908 20.8409 22.4944 20.4281L3.28873 1.29594C2.55665 0.567124 2.59751 0.442935 3.61556 0.160234C4.14596 0.0363113 4.69077 -0.0148145 5.23496 0.00826286L26.2202 0.00172502Z" fill="#ABABAB"/>
<path d="M26.1686 36.9981C19.1703 36.9981 12.1714 36.9981 5.17195 36.9981C4.49069 37.0169 3.81144 36.9157 3.16526 36.699C2.74039 36.5454 2.63581 36.3477 2.98388 36.0095C3.10153 35.8951 3.21429 35.7774 3.33031 35.6614C8.15638 30.8604 12.9781 26.0539 17.7954 21.242C18.3837 20.6521 18.7236 20.6407 19.2874 21.242C20.1927 22.2225 21.0849 23.2226 22.2451 23.922C23.6462 24.7902 25.2939 25.1738 26.9344 25.0138C28.5749 24.8537 30.1173 24.1589 31.3242 23.0363C31.9762 22.4573 32.5954 21.8425 33.1789 21.1946C33.6692 20.6374 34.0107 20.6243 34.5483 21.1734C36.6629 23.3337 38.8231 25.4482 40.9671 27.5807C43.7069 30.3042 46.4474 33.0327 49.1883 35.766C49.8419 36.4196 49.8142 36.5193 48.9416 36.7922C48.3896 36.9444 47.8175 37.0111 47.2453 36.9899C40.2209 36.9932 33.1953 36.9959 26.1686 36.9981Z" fill="#ABABAB"/>
<path d="M0.0012272 18.4379V4.87484C0.0012272 4.38461 -0.00694333 3.89437 0.164638 3.42048C0.406486 2.72926 0.569889 2.68024 1.09607 3.19988C3.45899 5.53339 5.81811 7.8718 8.17341 10.2151C10.7243 12.7463 13.2604 15.2907 15.8325 17.8023C16.3489 18.3072 16.4191 18.6193 15.8619 19.1651C10.953 23.9966 6.05996 28.8445 1.18268 33.7087C0.547016 34.3411 0.318238 34.2774 0.117243 33.3721C0.0351456 32.9452 -0.000471857 32.5107 0.0110215 32.0762C0.00121683 27.5312 -0.00204101 22.9851 0.0012272 18.4379Z" fill="#ABABAB"/>
<path d="M52.4069 18.4996C52.4069 23.0195 52.4069 27.5405 52.4069 32.0627C52.4341 32.5255 52.3956 32.9899 52.2925 33.4419C52.0474 34.2916 51.8676 34.3488 51.2499 33.7425C49.7367 32.2522 48.2268 30.7592 46.7202 29.2634C43.3408 25.9053 39.9729 22.5358 36.574 19.1973C36.0445 18.6793 36.0184 18.3705 36.5625 17.8345C41.4649 13.0008 46.3574 8.15293 51.2401 3.29091C51.8627 2.67485 52.0424 2.72878 52.2892 3.56871C52.3951 4.01974 52.4348 4.4838 52.4069 4.94627C52.4079 9.4575 52.4079 13.9753 52.4069 18.4996Z" fill="#ABABAB"/>
</svg>
