<svg width="37" height="37" viewBox="0 0 37 37" fill="none" xmlns="http://www.w3.org/2000/svg">
<path d="M0 34.9205V2.07924C0.611335 0.532325 1.38887 0 3.03845 0C13.4361 0 23.836 0 34.2382 0C35.8195 0 37 1.16588 37 2.73669C37 13.2406 37 23.7452 37 34.2506C37 35.8157 35.8149 36.9986 34.2427 36.9986C23.7297 36.9986 13.216 36.9986 2.70148 36.9986C2.48847 37.0056 2.27543 36.9857 2.06739 36.9395C0.984743 36.6631 0.341528 35.9454 0 34.9205ZM14.458 22.651C14.458 25.3945 14.4648 28.138 14.4512 30.8826C14.4512 31.2921 14.5878 31.4332 14.9942 31.4286C16.3888 31.4127 17.7834 31.4286 19.1768 31.4218C19.7699 31.4218 19.8018 31.3899 19.8018 30.7894C19.8018 28.2301 19.8018 25.6709 19.8018 23.1128C19.7985 22.4168 19.8461 21.7215 19.9441 21.0324C20.2071 19.2671 21.1531 18.3207 22.9245 18.2059C24.368 18.1115 25.3732 18.6722 25.799 20.1327C25.9827 20.7905 26.072 21.471 26.0643 22.1539C26.0643 25.0407 26.0643 27.9268 26.0643 30.8121C26.0643 31.3945 26.087 31.4206 26.6574 31.4218C28.0235 31.4218 29.3896 31.4218 30.7557 31.4218C31.383 31.4218 31.4126 31.3933 31.4126 30.7757C31.4126 27.8335 31.4126 24.8906 31.4126 21.9469C31.4126 20.5683 31.3784 19.1909 31.0358 17.843C30.618 16.1994 29.8131 14.8447 28.2 14.1111C26.7519 13.4525 25.2173 13.3752 23.6838 13.5992C22.1162 13.8267 20.8992 14.69 19.9839 15.9799C19.9077 16.0857 19.861 16.2916 19.6902 16.2313C19.5195 16.171 19.6037 15.981 19.6014 15.848C19.5923 15.393 19.5764 14.938 19.6014 14.483C19.6265 14.0701 19.4671 13.9359 19.0595 13.9416C17.7219 13.9598 16.3842 13.9416 15.0466 13.9484C14.458 13.9484 14.4466 13.9598 14.4466 14.5456C14.4542 17.2481 14.458 19.9499 14.458 22.651ZM5.55439 22.6339C5.55439 25.3763 5.55439 28.1198 5.55439 30.8622C5.55439 31.2512 5.66822 31.4309 6.08602 31.4309C7.52272 31.415 8.95941 31.415 10.3961 31.4309C10.7889 31.4309 10.9107 31.283 10.9107 30.8997C10.9016 25.4286 10.9016 19.9571 10.9107 14.4853C10.9107 14.0701 10.7684 13.9405 10.3654 13.9461C8.97081 13.9632 7.57737 13.9462 6.1828 13.953C5.58171 13.953 5.55893 13.9757 5.55893 14.5786C5.55362 17.2629 5.55135 19.948 5.55211 22.6339H5.55439ZM5.12292 8.27033C5.11503 9.09775 5.43606 9.89448 6.01555 10.4856C6.59504 11.0768 7.38563 11.414 8.21375 11.4233C9.89976 11.4381 11.3182 10.0288 11.3273 8.33061C11.3313 7.92357 11.255 7.51975 11.1027 7.14218C10.9505 6.76462 10.7253 6.42071 10.4401 6.1301C10.1548 5.83948 9.81503 5.60785 9.44017 5.44842C9.06531 5.289 8.66269 5.2049 8.2553 5.20094C7.84791 5.19698 7.44373 5.27324 7.06583 5.42535C6.68794 5.57745 6.34373 5.80245 6.05287 6.08747C5.762 6.37249 5.53016 6.71195 5.3706 7.08649C5.21104 7.46103 5.12688 7.8633 5.12292 8.27033Z" fill="#ABABAB"/>
</svg>
