<svg width="56" height="56" viewBox="0 0 56 56" fill="none" xmlns="http://www.w3.org/2000/svg">
<path d="M27.6725 19.9355C30.2855 19.9355 32.8986 19.9355 35.5108 19.9355C36.2868 19.9214 37.0477 20.1507 37.6867 20.5912C38.2335 20.9659 38.4958 21.4575 38.4316 22.1195C38.238 24.1 38.056 26.0823 37.8517 28.0611C37.527 31.2133 37.1945 34.3625 36.8543 37.5088C36.7455 38.5294 36.6265 39.5491 36.4975 40.5679C36.3681 41.5876 35.922 42.1059 34.9335 42.3566C34.5812 42.4459 34.2193 42.4921 33.8558 42.494C29.7217 42.5035 25.5881 42.5059 21.4552 42.5012C20.9613 42.5142 20.4699 42.4256 20.0117 42.2406C19.3105 41.9391 18.8787 41.4252 18.7957 40.6411C18.1689 34.7482 17.5402 28.8554 16.9098 22.9625C16.6992 20.9748 17.6003 19.9632 19.6442 19.9444C22.3188 19.9177 24.9961 19.9355 27.6725 19.9355ZM28.5833 31.2076H28.5789C28.5789 28.6383 28.5789 26.0692 28.5789 23.5005C28.5789 23.2453 28.5896 22.9777 28.5227 22.7359C28.404 22.3032 28.1114 22.0383 27.6305 22.0552C27.1684 22.0713 26.8597 22.3131 26.7482 22.7573C26.704 22.9883 26.6876 23.2237 26.6991 23.4586C26.6991 28.6181 26.7021 33.7776 26.7081 38.9371C26.7009 39.2143 26.7309 39.4912 26.7973 39.7605C26.9142 40.1762 27.2255 40.385 27.6618 40.385C28.1132 40.3904 28.3915 40.1379 28.5111 39.7364C28.5699 39.487 28.5931 39.2305 28.5798 38.9745C28.5851 36.3868 28.5863 33.7978 28.5833 31.2076ZM34.5134 24.0804C34.5134 23.827 34.5187 23.356 34.5134 22.8849C34.5062 22.4388 34.2716 22.1578 33.838 22.074C33.4044 21.9901 33.0172 22.1159 32.8129 22.5397C32.7124 22.7521 32.6539 22.9821 32.6408 23.2168C32.5414 25.0962 32.4522 26.9762 32.3731 28.8569C32.2411 31.8306 32.1126 34.8014 31.9877 37.7693C31.9627 38.3679 31.9494 38.9683 31.9672 39.5669C31.9806 40.0282 32.2286 40.3324 32.7103 40.3823C33.2064 40.4341 33.5311 40.1887 33.6962 39.7373C33.7452 39.5729 33.7702 39.4022 33.7702 39.2306C34.0129 34.2534 34.2573 29.2762 34.5134 24.0804ZM23.3305 38.185C23.2966 37.6988 23.2261 37.0591 23.2109 36.4186C23.1083 32.0328 22.83 27.6551 22.6498 23.273C22.6167 22.4781 22.2501 22.0392 21.6336 22.0517C21.0171 22.0641 20.7415 22.438 20.7736 23.2819C20.8512 25.2446 20.952 27.2135 21.0412 29.1798C21.1745 32.1292 21.3074 35.0783 21.44 38.0271C21.4623 38.5187 21.4953 39.0084 21.5524 39.4991C21.6202 40.079 22.0065 40.4198 22.5338 40.3913C23.1324 40.3556 23.3305 39.9737 23.3322 39.434C23.3313 39.0682 23.3305 38.7016 23.3305 38.185Z" fill="#CDCDCD"/>
<path d="M16.9459 18.9238C16.0538 18.8988 16.0493 18.8988 16.0154 18.0022C15.9949 17.682 15.9949 17.3608 16.0154 17.0405C16.1046 16.1252 16.7211 15.4739 17.6409 15.4427C19.0727 15.3954 20.5073 15.399 21.9401 15.424C22.4673 15.4329 22.7858 15.3642 22.9731 14.7665C23.3238 13.6504 24.2944 13.0313 25.48 13.0215C26.8281 13.0099 28.1761 13.0072 29.5241 13C30.7195 12.9938 31.7544 13.7004 32.1041 14.8468C32.2308 15.2589 32.4092 15.3642 32.8178 15.3499C34.0793 15.3062 35.3426 15.3232 36.6041 15.2937C38.5489 15.2482 39.5231 16.5043 39.0128 18.4028C38.9165 18.7597 38.6711 18.7953 38.3785 18.7971C35.94 18.8114 33.5015 18.826 31.063 18.8408C27.0835 18.8688 23.104 18.8985 19.1245 18.9301C18.401 18.9309 17.673 18.9247 16.9459 18.9238ZM24.5567 15.3829C24.9635 15.3776 25.348 15.3678 25.7334 15.3678C27.3392 15.3678 28.9436 15.3695 30.5465 15.3731C31.0059 15.3731 31.0889 15.1724 30.8569 14.82C30.5572 14.3659 30.1316 14.0884 29.5723 14.092C28.2251 14.1009 26.878 14.1191 25.5309 14.1464C25.0705 14.1554 24.6388 14.2731 24.3087 14.6264C24.1624 14.7825 23.9723 14.9529 24.0294 15.176C24.099 15.4498 24.3818 15.3428 24.5567 15.3829Z" fill="#CDCDCD"/>
<circle cx="28" cy="28" r="27.5" stroke="#CDCDCD"/>
</svg>
