<svg width="45" height="37" viewBox="0 0 45 37" fill="none" xmlns="http://www.w3.org/2000/svg">
<path d="M0.00339754 32.6829C1.03224 32.8447 2.07578 32.8909 3.11477 32.8206C6.82822 32.6336 10.3994 31.3245 13.3619 29.064C13.3133 28.8762 13.1787 28.9069 13.07 28.8955C9.32394 28.4835 6.73415 26.505 5.21467 23.0432C5.16828 22.9294 5.12981 22.8224 5.0936 22.7108C5.01101 22.4524 5.08116 22.3613 5.36628 22.4114C6.40897 22.5886 7.47514 22.5712 8.51159 22.3602C8.63604 22.3352 8.7605 22.3033 8.95737 22.2589C7.36774 21.8514 6.00439 21.1604 4.84243 20.096C3.10346 18.5023 2.08633 16.5227 1.82045 14.1606C1.79216 13.9113 1.76613 13.662 1.74464 13.4115C1.71522 13.07 1.81931 12.938 2.16665 13.1247C3.20415 13.6802 4.32652 13.9488 5.48168 14.098C5.53825 14.1048 5.59482 14.098 5.77018 14.098C5.58237 13.9454 5.46811 13.8532 5.35383 13.7565C2.87152 11.696 1.71409 9.02883 1.84647 5.80954C1.90805 4.53639 2.248 3.29259 2.8421 2.16678C3.11024 1.64655 3.13287 1.63972 3.5051 2.08482C7.68096 7.07074 13.55 10.3166 19.9716 11.1917C20.5238 11.2657 21.0736 11.342 21.6303 11.3682C21.9788 11.3841 22.1021 11.2873 22.0353 10.9128C21.6393 8.63609 22.0353 6.48004 23.2448 4.52888C25.0494 1.60329 27.6856 0.0642188 31.1284 0.00160876C33.6786 -0.0439258 35.8544 0.878142 37.6838 2.64147C37.9101 2.86914 38.1194 2.87939 38.3921 2.81792C40.125 2.42309 41.7934 1.78303 43.3477 0.916858C43.4823 0.842864 43.5988 0.703984 43.8466 0.760902C43.1678 2.85549 41.9085 4.47538 40.1379 5.7697C40.6798 5.65587 41.2263 5.57049 41.7637 5.44071C42.3011 5.31094 42.8408 5.1584 43.3703 4.98537C43.8998 4.81234 44.4372 4.6006 44.9758 4.40367C45.0572 4.61312 44.9135 4.70874 44.8366 4.81802C43.7633 6.37485 42.452 7.75107 40.9513 8.89564C40.8019 8.99555 40.682 9.1341 40.6041 9.29675C40.5263 9.4594 40.4934 9.64015 40.509 9.81999C40.5995 16.5363 38.486 22.4934 34.2862 27.6695C30.3987 32.4632 25.3764 35.3933 19.329 36.5351C17.1074 36.9509 14.8432 37.0886 12.5881 36.9449C8.3082 36.6998 4.15564 35.3902 0.502353 33.1337C0.33943 33.0335 0.162923 32.9515 0 32.8616L0.00339754 32.6829Z" fill="#ABABAB"/>
</svg>
